<svg xmlns="http://www.w3.org/2000/svg" viewBox="0 0 800 480" font-family="Arial, Helvetica, sans-serif">
  <rect width="800" height="480" fill="#0b0c0e"/>

  <path d="M 40 30 L 33 37 L 40 44" fill="none" stroke="#8a8d92" stroke-width="1.8" stroke-linecap="round" stroke-linejoin="round"/>
  <text x="48" y="42" fill="#8a8d92" font-size="15">Home</text>

  <text x="400" y="140" text-anchor="middle" fill="#f2f2f0" font-size="54" font-weight="400">6:07 <tspan fill="#8a8d92" font-size="24">PM</tspan></text>
  <text x="400" y="175" text-anchor="middle" fill="#8a8d92" font-size="16">Monday, July 13</text>

  <rect x="100" y="215" width="600" height="16" rx="8" fill="#2f6b45"/>
  <rect x="250" y="215" width="100" height="16" fill="#6b4f22"/>
  <rect x="350" y="215" width="100" height="16" fill="#2f6b45"/>
  <rect x="450" y="215" width="50" height="16" fill="#6b4f22"/>
  <rect x="500" y="215" width="125" height="16" fill="#7a3128"/>
  <rect x="625" y="215" width="75" height="16" rx="8" fill="#6b4f22"/>
  <rect x="551" y="197" width="3" height="18" fill="#f2f2f0"/>

  <g font-size="14" fill="#8a8d92">
    <circle cx="230" cy="260" r="5" fill="#4fbf7a"/>
    <text x="242" y="265">Super off-peak</text>
    <circle cx="380" cy="260" r="5" fill="#e8a53d"/>
    <text x="392" y="265">Off-peak</text>
    <circle cx="500" cy="260" r="5" fill="#e2574c"/>
    <text x="512" y="265">On-peak</text>
  </g>

  <rect x="253" y="295" width="315" height="34" rx="17" fill="#3a1f1c"/>
  <circle cx="277" cy="312" r="5" fill="#e2574c"/>
  <text x="291" y="317" text-anchor="start" fill="#e2574c" font-size="14">On-peak &#183; $0.38/kWh &#183; until 9:00 PM</text>
</svg>
