<svg xmlns="http://www.w3.org/2000/svg" viewBox="0 0 800 480" font-family="Arial, Helvetica, sans-serif">
  <rect width="800" height="480" fill="#0b0c0e"/>

  <path d="M 40 30 L 33 37 L 40 44" fill="none" stroke="#8a8d92" stroke-width="1.8" stroke-linecap="round" stroke-linejoin="round"/>
  <text x="48" y="42" fill="#8a8d92" font-size="15">Home</text>

  <g transform="rotate(-90 300 110)">
    <circle cx="300" cy="110" r="42" fill="none" stroke="#242629" stroke-width="10"/>
    <circle cx="300" cy="110" r="42" fill="none" stroke="#3fd6c8" stroke-width="10" stroke-linecap="round" stroke-dasharray="263.9" stroke-dashoffset="50.1"/>
  </g>
  <text x="385" y="100" text-anchor="middle" fill="#f2f2f0" font-size="32" font-weight="400">82<tspan fill="#8a8d92" font-size="17">%</tspan></text>
  <path d="M 358 122 L 366 122 L 362 130 Z" fill="#e8a53d"/>
  <text x="400" y="131" text-anchor="middle" fill="#e8a53d" font-size="14">Discharging 763W</text>

  <text x="400" y="185" text-anchor="middle" fill="#6b6e73" font-size="13">Yesterday (Sun, Jul 12), 12 AM &#8211; 6:07 PM</text>

  <polyline points="100,394.8 112.6,394.4 125.2,358.8 137.2,313.2 149.8,282 162.4,264.4 175,268 187.6,268 200.2,268 212.8,268.4 224.8,268.4 237.4,268.4 250,268.4 262.6,268.8 275.2,268.8 287.2,268.8 299.8,268.8 312.4,268.8 325,269.2 337.6,269.2 350.2,269.2 362.8,269.2 374.8,269.2 387.4,269.2 400,269.2 412.6,269.2 425.2,269.2 437.2,269.2 449.8,270" fill="none" stroke="#4fbf7a" stroke-width="3"/>
  <polyline points="449.8,270 462.4,280.8 475,284.8 487.6,288 500.2,291.2 512.8,294.8 524.8,298 537.4,303.6 550,309.6 553,310.8" fill="none" stroke="#e8a53d" stroke-width="3"/>
  <circle cx="553" cy="310.8" r="5" fill="#f2f2f0"/>

  <text x="100" y="440" fill="#6b6e73" font-size="13">12 AM</text>
  <text x="700" y="440" text-anchor="end" fill="#6b6e73" font-size="13">Now</text>

  <g font-size="14" fill="#8a8d92">
    <circle cx="220" cy="465" r="5" fill="#4fbf7a"/>
    <text x="232" y="470">Charging (super off-peak, weekend)</text>
    <circle cx="530" cy="465" r="5" fill="#e8a53d"/>
    <text x="542" y="470">Discharging</text>
  </g>
</svg>
