<svg xmlns="http://www.w3.org/2000/svg" viewBox="0 0 800 480" font-family="Arial, Helvetica, sans-serif">
  <rect width="800" height="480" fill="#0b0c0e"/>

  <path d="M 40 30 L 33 37 L 40 44" fill="none" stroke="#8a8d92" stroke-width="1.8" stroke-linecap="round" stroke-linejoin="round"/>
  <text x="48" y="42" fill="#8a8d92" font-size="15">Home</text>

  <ellipse cx="330" cy="98" rx="12" ry="9" fill="#8a8d92"/><ellipse cx="345" cy="93" rx="14" ry="10" fill="#8a8d92"/><ellipse cx="360" cy="100" rx="9" ry="7" fill="#8a8d92"/>
  <text x="400" y="108" fill="#f2f2f0" font-size="32" font-weight="400">68&#176;F</text>
  <text x="470" y="106" fill="#8a8d92" font-size="15">Cloudy</text>

  <g text-anchor="middle">
    <circle cx="160" cy="195" r="10" fill="#e8a53d"/>
    <line x1="160" y1="178" x2="160" y2="183" stroke="#e8a53d" stroke-width="2"/><line x1="160" y1="207" x2="160" y2="212" stroke="#e8a53d" stroke-width="2"/><line x1="143" y1="195" x2="148" y2="195" stroke="#e8a53d" stroke-width="2"/><line x1="172" y1="195" x2="177" y2="195" stroke="#e8a53d" stroke-width="2"/>
    <text x="160" y="228" fill="#d6d7d9" font-size="15">5:58 AM</text>
    <text x="160" y="248" fill="#6b6e73" font-size="12">Sunrise</text>

    <circle cx="320" cy="195" r="10" fill="#e8a53d"/>
    <line x1="320" y1="178" x2="320" y2="183" stroke="#e8a53d" stroke-width="2"/><line x1="320" y1="207" x2="320" y2="212" stroke="#e8a53d" stroke-width="2"/><line x1="303" y1="195" x2="308" y2="195" stroke="#e8a53d" stroke-width="2"/><line x1="332" y1="195" x2="337" y2="195" stroke="#e8a53d" stroke-width="2"/>
    <text x="320" y="228" fill="#d6d7d9" font-size="15">8:41 PM</text>
    <text x="320" y="248" fill="#6b6e73" font-size="12">Sunset</text>

    <circle cx="480" cy="195" r="10" fill="#8a8d92"/><circle cx="484.5" cy="195" r="10" fill="#0b0c0e"/>
    <text x="480" y="228" fill="#d6d7d9" font-size="15">9:14 PM</text>
    <text x="480" y="248" fill="#6b6e73" font-size="12">Moonrise</text>

    <circle cx="640" cy="195" r="10" fill="#8a8d92"/><circle cx="635.5" cy="195" r="10" fill="#0b0c0e"/>
    <text x="640" y="228" fill="#d6d7d9" font-size="15">6:37 AM</text>
    <text x="640" y="248" fill="#6b6e73" font-size="12">Moonset</text>
  </g>

  <circle cx="345" cy="295" r="9" fill="#c9cace"/><circle cx="336" cy="295" r="9" fill="#0b0c0e"/>
  <text x="362" y="300" fill="#c9cace" font-size="15">Waxing gibbous &#183; 72% lit</text>

  <text x="400" y="345" text-anchor="middle" fill="#5dc8e8" font-size="20" font-weight="bold">Tide</text>
  <polyline points="150,395 190,370 235,385 275,410 315,385 360,370 400,395 440,410 485,385 525,370 565,395 610,410 650,395" fill="none" stroke="#5dc8e8" stroke-width="3"/>
  <text x="150" y="440" fill="#f2f2f0" font-size="15">High 3:58 PM</text>
  <text x="650" y="440" text-anchor="end" fill="#f2f2f0" font-size="15">Low 10:47 PM</text>
</svg>
